<?xml version="1.0" standalone="no"?>
<!DOCTYPE svg PUBLIC "-//W3C//DTD SVG 20010904//EN"
 "http://www.w3.org/TR/2001/REC-SVG-20010904/DTD/svg10.dtd">
<svg version="1.0" xmlns="http://www.w3.org/2000/svg"
 width="512.000000pt" height="512.000000pt" viewBox="0 0 512.000000 512.000000"
 preserveAspectRatio="xMidYMid meet">

<g transform="translate(0.000000,512.000000) scale(0.100000,-0.100000)"
fill="#000000" stroke="none">
<path d="M1170 5100 c-12 -12 -20 -33 -20 -52 0 -29 42 -75 442 -475 l443
-443 -62 -62 c-33 -35 -75 -83 -93 -108 l-31 -45 -817 -5 -817 -5 -42 -23
c-66 -35 -110 -79 -140 -140 l-28 -57 0 -1730 0 -1730 21 -46 c28 -60 93 -125
153 -153 l46 -21 2335 0 2335 0 46 21 c60 28 125 93 153 153 l21 46 0 1730 0
1730 -21 46 c-30 63 -79 116 -138 147 l-51 27 -817 5 -817 5 -31 45 c-18 25
-60 73 -93 108 l-62 62 443 443 c400 400 442 446 442 475 0 19 -8 40 -20 52
-48 48 -43 51 -530 -435 l-456 -456 -58 26 c-121 53 -201 69 -346 69 -145 0
-225 -16 -346 -69 l-58 -26 -456 456 c-487 486 -482 483 -530 435z m1528 -945
c117 -23 244 -90 333 -175 l74 -69 -545 0 -545 0 74 69 c162 154 387 219 609
175z m2202 -407 c18 -13 43 -36 54 -51 l21 -28 0 -1713 0 -1713 -27 -35 c-57
-74 165 -68 -2388 -68 -2553 0 -2331 -6 -2388 68 l-27 35 0 1713 0 1713 21 28
c11 15 36 38 54 51 l33 22 2307 0 2307 0 33 -22z"/>
<path d="M350 3560 c-20 -20 -20 -33 -20 -1603 l0 -1584 23 -21 23 -22 1795 0
1796 0 21 23 22 23 0 1582 c0 1569 0 1582 -20 1602 -20 20 -33 20 -1820 20
-1787 0 -1800 0 -1820 -20z m3520 -1605 l0 -1485 -1700 0 -1700 0 0 1485 0
1485 1700 0 1700 0 0 -1485z"/>
<path d="M4202 3557 c-29 -30 -28 -62 3 -92 l24 -25 266 0 266 0 24 25 c30 30
31 54 4 89 l-20 26 -273 0 c-272 0 -273 0 -294 -23z"/>
<path d="M4200 3120 c-25 -25 -26 -61 -1 -91 l19 -24 277 0 277 0 19 24 c25
30 24 66 -1 91 -19 19 -33 20 -295 20 -262 0 -276 -1 -295 -20z"/>
<path d="M4233 2703 c-49 -10 -69 -77 -33 -113 19 -19 33 -20 295 -20 262 0
276 1 295 20 25 25 26 61 1 91 l-19 24 -259 1 c-142 1 -268 0 -280 -3z"/>
<path d="M4417 1456 c-120 -44 -182 -170 -147 -297 13 -48 75 -118 124 -140
54 -24 148 -24 202 0 51 23 111 93 125 145 40 147 -60 291 -208 302 -35 3 -72
-1 -96 -10z m123 -141 c56 -29 67 -93 24 -144 -21 -26 -33 -31 -69 -31 -36 0
-48 5 -69 31 -42 50 -32 114 22 143 35 19 56 20 92 1z"/>
<path d="M4392 779 c-166 -82 -176 -316 -18 -414 43 -26 59 -30 121 -30 62 0
78 4 121 30 158 98 147 333 -19 414 -59 28 -147 28 -205 0z m172 -150 c34 -40
34 -88 2 -126 -20 -23 -32 -28 -71 -28 -39 0 -51 5 -71 28 -32 38 -32 86 2
126 21 26 33 31 69 31 36 0 48 -5 69 -31z"/>
</g>
</svg>
